<svg xmlns="http://www.w3.org/2000/svg" width="75" height="72" fill="none"><path fill="#83B3D3" d="M29.62 65h16.06V41.2H29.62V65Zm2.91-20.9h10.14v18H32.53v-18Z"/><path fill="#83B3D3" d="m72.9 39.3 2.1-2.1-9.94-9.9V0H51.1v13.6L37.45 0 0 37.2l2.1 2.1 7.84-7.8v37.6H5.92V72h64.16v-2.9h-5.12V31.5l7.93 7.8ZM62.04 69.1h-49.2V28.5l24.6-24.4 24.6 24.4v40.6Zm0-44.7-7.93-7.9V2.9h7.93v21.5Z"/><path fill="#83B3D3" d="M29.82 27.1c0 4.3 3.51 7.7 7.73 7.7a7.8 7.8 0 0 0 7.83-7.7c0-4.3-3.51-7.7-7.83-7.7a7.72 7.72 0 0 0-7.73 7.7Zm7.83-5a5 5 0 0 1 5.02 4.9c0 2.7-2.2 4.9-5.02 4.9a5 5 0 0 1-5.02-4.9c0-2.7 2.2-4.9 5.02-4.9ZM19.98 41.2h-3.01v3.9h3.01v-3.9ZM25.9 41.2h-3v3.9h3v-3.9ZM19.98 47.2h-3.01v3.9h3.01v-3.9ZM25.9 47.2h-3v3.9h3v-3.9ZM52 41.2h-3v3.9h3v-3.9ZM57.93 41.2h-3.01v3.9h3.01v-3.9ZM52 47.2h-3v3.9h3v-3.9ZM57.93 47.2h-3.01v3.9h3.01v-3.9Z"/></svg>